<?xml version="1.0" encoding="iso-8859-1"?>
<!-- Generator: Adobe Illustrator 16.0.0, SVG Export Plug-In . SVG Version: 6.00 Build 0)  -->
<!DOCTYPE svg PUBLIC "-//W3C//DTD SVG 1.1//EN" "http://www.w3.org/Graphics/SVG/1.1/DTD/svg11.dtd">
<svg version="1.1" id="Layer_1" xmlns="http://www.w3.org/2000/svg" xmlns:xlink="http://www.w3.org/1999/xlink" x="0px" y="0px"
	 width="422.465px" height="456.343px" viewBox="0 0 422.465 456.343" style="enable-background:new 0 0 422.465 456.343;"
	 xml:space="preserve">
<g>
	<path style="fill:#B43856;" d="M48.961,149.933l48.951,34.896l59.826,4.084l-8.404-11.686l-45.477-1.9l-51.717-35.541
		c0,0-47.328-14.654-49.279-8.014C0.901,138.415,48.961,149.933,48.961,149.933z"/>
	<path style="fill:#B43856;" d="M328.073,276.819c0,0-29.203-48.592-34.293-52.783c-4.572-3.73-59.933-12.859-71.521-14.737
		c-7.759-12.221-13.334-20.536-13.334-20.536l-1.71-2.378c0.903-0.187,1.842-0.411,2.841-0.701l133.943,17.94
		c0,0,76.525-26.768,73.822-32.686c-2.674-5.922-76.826,21.236-76.826,21.236l-108.011-17.203
		c13.729-8.054,30.028-19.786,46.595-33.969c38.141-32.676,95.631-65.541,75.234-88.078
		c-20.398-22.551-63.074,25.076-101.199,57.732c-28.221,24.158-49.285,48.641-55.446,63.146l-6.951-9.666l14.959-57.146
		l-17.518-57.52c0,0,4.385-49.219-2.529-49.471c-6.908-0.277-8.096,49.26-8.096,49.26l17.225,60.334l-12.433,42.874l-3.173-4.413
		l-11.64,1.875c5.135-7.791,5.734-17.358,0.692-24.361c-5.33-7.419-15.396-9.738-24.903-6.599L90.844,58.044l38.965,70.857
		c-6.146,8.038-7.194,18.452-1.809,25.936c5.089,7.076,14.478,9.533,23.577,7.028l-5.731,10.493l17.53,24.387
		c-16.4,2.532-44.39,14.324-74.073,32.066c-43.098,25.746-101.826,51.043-86.945,77.553c14.869,26.508,64.332-17.521,107.449-43.279
		c19.331-11.559,36.084-23.674,48.189-34.381l-18.117,108.084c0,0-49.336,61.645-44.588,66.07
		c4.77,4.436,54.502-59.594,54.502-59.594l25.179-130.387l0.145,0.202c0,0,7.292,9.601,17.817,22.669
		c-2.96,18.36-9.645,61.578-7.804,66.417c2.334,6.162,39.105,49.322,39.105,49.322c8.107,33.1,10.357,98.809,15.748,104.855
		c8.145-6.889-4.436-108.801-4.436-108.801s-34.486-47.945-36.727-51.055c-1.699-2.374,2.817-33.013,5.047-47.367
		c23.957,28.838,55.447,63.559,63.703,57.625c8.594-6.183-16.229-50.37-36.2-82.862c7.659,1.272,50.622,8.515,52.653,11.333
		c2.238,3.113,36.719,51.07,36.719,51.07s92.609,44.361,101.721,38.844C418.446,318.085,356.87,295.048,328.073,276.819z"/>
</g>
</svg>
