<?xml version="1.0" encoding="iso-8859-1"?>
<!-- Generator: Adobe Illustrator 16.0.0, SVG Export Plug-In . SVG Version: 6.00 Build 0)  -->
<!DOCTYPE svg PUBLIC "-//W3C//DTD SVG 1.1//EN" "http://www.w3.org/Graphics/SVG/1.1/DTD/svg11.dtd">
<svg version="1.1" id="Layer_1" xmlns="http://www.w3.org/2000/svg" xmlns:xlink="http://www.w3.org/1999/xlink" x="0px" y="0px"
	 width="589.988px" height="540.89px" viewBox="0 0 589.988 540.89" style="enable-background:new 0 0 589.988 540.89;"
	 xml:space="preserve">
<g style="opacity:0.15;">
	<path style="fill:#B53856;" d="M211.061,257.053l-15.5-9.93l-54.957,19.191l-78.236-17.855c0,0-63.17,4.902-62.359,13.717
		c0.801,8.818,63.363-0.156,63.363-0.156l74.646,18.394L211.061,257.053z"/>
	<path style="fill:#B53856;" d="M454.996,281.209c0,0-57.631-43.988-65.658-46.568c-7.194-2.279-77.31,12.98-91.968,16.213
		c-14.986-10.867-25.534-18.121-25.534-18.121l-3.142-2.012c0.979-0.645,1.991-1.372,3.034-2.182l167.68-41.849
		c0,0,78.34-67.908,72.338-73.67c-5.975-5.775-81.311,61.479-81.311,61.479l-136.505,30.495
		c12.521-16.048,26.362-37.684,39.364-62.354c29.93-56.834,82.766-123.014,47.893-140.186
		c-34.885-17.186-63.15,59.559-93.07,116.357c-22.143,42.011-35.645,81.051-36.137,101.205l-12.81-8.204l-9.169-74.983
		l-47.951-60.113c0,0-18.002-60.574-26.34-57.613c-8.342,2.93,13.607,62.373,13.607,62.373l48.934,63.598l5.441,56.826l-5.854-3.75
		l-12.951,7.719c2.43-11.683-1.37-23.338-10.667-29.283c-9.841-6.311-22.924-4.341-32.747,3.884L69.82,133.038l79.737,65.851
		c-3.514,12.454,0.151,25.328,10.081,31.682c9.385,6.009,21.706,4.511,31.339-2.753l-1.862,15.166l32.339,20.72
		c-18.301,10.747-46.012,37.964-72.925,73.053c-39.088,50.93-96.967,108.701-66.777,133.193
		c30.178,24.496,68.209-51.166,107.314-102.125c17.521-22.846,31.73-45.15,41.07-63.582l29.44,137.012
		c0,0-29.574,96.545-21.842,99.568c7.762,3.023,36.678-96.545,36.678-96.545l-31.561-166.865l0.266,0.17
		c0,0,13.195,7.973,31.87,18.542c5.141,23.222,17.576,77.747,22.048,82.634c5.684,6.223,69.748,40.182,69.748,40.182
		c25.248,35.523,58.914,112.57,68.174,117.217c6.432-12.029-56.588-127.24-56.588-127.24s-63.607-40.727-67.736-43.367
		c-3.138-2.021-12.221-40.571-16.339-58.685c42.078,22.98,95.886,49.4,102.899,38.454c7.301-11.402-43.045-52.222-82.108-81.425
		c9.704-2.101,64.188-13.754,67.931-11.362c4.129,2.643,67.736,43.386,67.736,43.386s131.006,9.057,139.236-1.799
		C581.887,287.639,497.824,289.297,454.996,281.209z"/>
</g>
</svg>
