<?xml version="1.0" encoding="iso-8859-1"?>
<!-- Generator: Adobe Illustrator 16.0.0, SVG Export Plug-In . SVG Version: 6.00 Build 0)  -->
<!DOCTYPE svg PUBLIC "-//W3C//DTD SVG 1.1//EN" "http://www.w3.org/Graphics/SVG/1.1/DTD/svg11.dtd">
<svg version="1.1" id="Layer_1" xmlns="http://www.w3.org/2000/svg" xmlns:xlink="http://www.w3.org/1999/xlink" x="0px" y="0px"
	 width="478.942px" height="430.653px" viewBox="0 0 478.942 430.653" style="enable-background:new 0 0 478.942 430.653;"
	 xml:space="preserve">
<g>
	<g>
		<path d="M287.31,128.61c0,0,3.338,4.006,8.071,3.48c0,0,0.87,4.21-4.036,8.417c0,0-7.178,12.986-10.022,12.989l-1.722-13.153
			L287.31,128.61z"/>
		<linearGradient id="SVGID_1_" gradientUnits="userSpaceOnUse" x1="189.5977" y1="177.3301" x2="301.168" y2="177.3301">
			<stop  offset="0" style="stop-color:#BD8B66"/>
			<stop  offset="0.9796" style="stop-color:#C58D67"/>
		</linearGradient>
		<path style="fill:url(#SVGID_1_);" d="M189.598,174.7c0,0,6.889,2.63,12.149-3.156c9.6,0.788,14.057-13.973,14.057-13.973
			l-0.906-9.699l78.905-49.448v6.839c0,0-12.636,37.177-12.109,41.386c0.524,4.208-2.488,17.793-0.909,23.317
			c1.578,5.523,4.472,10.916,10.257,13.019l10.127,4.867l-7.365,26.828l-22.093,41.557h-58.391L189.598,174.7z"/>
		<linearGradient id="SVGID_2_" gradientUnits="userSpaceOnUse" x1="104.4956" y1="302.7905" x2="434.3408" y2="302.7905">
			<stop  offset="0.0102" style="stop-color:#C58D67"/>
			<stop  offset="0.9847" style="stop-color:#CE9975"/>
		</linearGradient>
		<path style="fill:url(#SVGID_2_);" d="M354.297,430.355c-23.146,0-38.399-5.675-38.399-5.675s-26.828-2.742-67.859-0.638
			c-41.03,2.104-102.577-1.578-107.838-2.631s-9.994-3.156-18.938-3.683c-8.942-0.524-8.942-4.733-9.468-6.313
			c-0.526-1.577-0.526-8.416-2.631-13.678c-2.104-5.26-3.155-25.249-3.155-25.249c-4.735-64.178,3.155-135.719,3.155-135.719
			s3.683-36.821,23.146-48.394c19.464-11.573,30.48-12.313,66.776-13.365l-7.334,27.042c0,0-5.787,62.072-24.724,72.593
			c0,0,4.734,54.708-1.052,85.218l2.104,2.63c0,0,42.608,4.207,79.957,13.678c0,0,20.515,2.104,44.187,2.104
			c0,0,11.245,5.326,27.519,4.809c5.426-0.173,11.408-3.1,17.721-4.283c25.25-4.733,32.614-6.313,45.766,0.526
			c0,0,17.643,9.139,21.326,12.295c3.683,3.155,8.658,13.481,8.658,13.481l21.041,13.676c0,0,1.052,6.313-4.208,7.891
			c-5.261,1.578-5.261,1.578-5.261,1.578s-3.682,3.156-10.521,2.105c-6.838-1.053-21.567,0.213-21.567,0.213L354.297,430.355z"/>
		<linearGradient id="SVGID_3_" gradientUnits="userSpaceOnUse" x1="104.4956" y1="303.0532" x2="132.3096" y2="303.0532">
			<stop  offset="0" style="stop-color:#CE9975"/>
			<stop  offset="0.8826" style="stop-color:#D4A989"/>
		</linearGradient>
		<path style="opacity:0.5;fill:url(#SVGID_3_);" d="M132.31,188.377c-19.463,11.573-23.146,48.394-23.146,48.394
			s-7.891,71.541-3.155,135.719c0,0,1.052,19.989,3.155,25.249c2.104,5.262,2.104,12.101,2.631,13.678
			c0.525,1.579,0.525,5.788,9.468,6.313c0,0-5.786-6.313-4.997-15.78c0.789-9.47,7.102-12.625,3.157-30.774
			c-3.946-18.147-7.103-118.358,6.312-157.021L132.31,188.377z"/>
		<path style="fill:#282829;" d="M295.908,186.274c0,0,1.576-6.839,5.26-3.156c3.683,3.681,9.994,0,9.994,0s7.365,1.05,7.891,6.838
			c0,0-16.115,13.894-20.215,31.819c-4.1,17.924-10.296,39.195,2.33,54.451l34.192,12.625v61.015c0,0-2.827,15.558-2.63,22.624
			c0.196,7.068,0.196,7.068,0.196,7.068s-3.248,6.824-18.466,6.598c-15.217-0.229-83.218-13.848-83.218-13.848
			s-51.59-9.813-63.162-9.813l-2.104-2.63c0,0,3.683-59.04,1.052-85.218c0,0,18.835-12.625,22.569-58.916
			c3.733-46.292-7.314-41.032-7.314-41.032s6.276-6.453,14.204-3.156c0,0,4.732-4.735,5.26,0c0.525,4.735,2.104,13.15,2.631,27.88
			c0.524,14.729,6.839,26.302,12.624,32.614c5.786,6.313,21.042,17.359,36.297,7.891C268.553,230.46,286.119,208.51,295.908,186.274
			z"/>
		<path style="fill:#282829;" d="M168.081,274.912l-3.708-18.604c0,0-0.103-2.253-1.79-4.31c-1.687-2.057,2.13,6.99,2.13,6.99
			l2.315,18.288"/>
		<path style="fill:#282829;" d="M168.081,362.496c0,0-7.363-5.783-8.415-11.046c-1.053-5.263-1.053-5.263-1.053-5.263
			L168.081,362.496z"/>
		<linearGradient id="SVGID_4_" gradientUnits="userSpaceOnUse" x1="162.9111" y1="360.0708" x2="162.9111" y2="251.9976">
			<stop  offset="0" style="stop-color:#BD8B66"/>
			<stop  offset="0.9796" style="stop-color:#C58D67"/>
		</linearGradient>
		<path style="fill:url(#SVGID_4_);" d="M162.583,251.998c0,0,6.879,26.864,6.024,46.32c-0.856,19.456-1.935,61.753-1.935,61.753
			l-7.007-8.621l-1.053-5.263C158.613,346.187,153.404,309.833,162.583,251.998z"/>
		<linearGradient id="SVGID_5_" gradientUnits="userSpaceOnUse" x1="127.8364" y1="317.6304" x2="375.4473" y2="317.6304">
			<stop  offset="0" style="stop-color:#CE9975"/>
			<stop  offset="0.8826" style="stop-color:#D4A989"/>
		</linearGradient>
		<path style="opacity:0.5;fill:url(#SVGID_5_);" d="M142.684,213.365c0,0-15.371,3.155-14.582,23.672
			c0.789,20.515-0.848,59.967-0.029,77.326s2.396,63.521,19.755,65.296c17.36,1.774,83.378,8.876,114.283,20.711
			c30.904,11.837,58.566,7.103,58.566,7.103s20.923,18.938,53.442,13.414c0,0,2.988-4.734,0-11.047s0-9.47,0-9.47l-3.777-11.835
			l-2.264-13.748l-49.813,9.014c0,0-50.286-7.803-68.653-9.647c-18.368-1.845-62.471-12.446-84.494-11.657
			c0,0-11.766,2.252-14.133-2.425s-10.287-80.216-8.301-101.23C144.672,237.825,151.744,218.098,142.684,213.365z"/>
		<linearGradient id="SVGID_6_" gradientUnits="userSpaceOnUse" x1="201.7471" y1="187.9292" x2="275.1289" y2="187.9292">
			<stop  offset="0.0102" style="stop-color:#C58D67"/>
			<stop  offset="0.9847" style="stop-color:#CE9975"/>
		</linearGradient>
		<path style="opacity:0.5;fill:url(#SVGID_6_);" d="M275.129,147.084c0,0-8.679,17.358-17.885,27.616s-25.248,8.68-27.484,26.828
			c-2.237,18.149-8.359,25.318-15.431,27.246c0,0-10.083-12.611-10.676-41.233l-1.906-15.997c0,0,8.805,8.49,22.024-4.435
			S275.129,147.084,275.129,147.084z"/>
		<path d="M307.365,40.11c0,0,3.665,0.343,10.343-3.261c6.676-3.603,10.342-3.26,21.786,9.96
			c11.445,13.221,9.776,14.121,7.701,25.022c-2.074,10.901-12.907,19.398-12.445,25.782c0.461,6.382,3.867,15.167,5.229,23.213
			c1.36,8.045,1.73,32.382-8.187,36.74c-9.917,4.356-13.515,14.587-10.666,18.023c0,0-12.562-5.927-10.631-15.786
			c0,0-6.114,8.41-8.782,8.689c0,0,1.012-5.189,0.112-6.858c0,0-6.94-4.875-4.146-17.822c0,0-13.277-9.289-9.393-17.581
			L307.365,40.11z"/>
		<path style="fill:#282829;" d="M191.622,86.128l-0.658,7.712c0,0-3.091,14.125-0.725,26.612
			c2.368,12.487,5.27,21.603,13.554,33.833c0,0,2.96,4.4,4.753,7.762c1.792,3.361,3.59,12.455,17.398,12.455
			s16.554-2.826,26.737-6.704c10.183-3.878,30.911-25.148,35.907-34.923l1.187-1.527c0,0,0.908,2.126,3.258,2.222
			c2.348,0.098,6.82-0.166,11.422-9.766c4.604-9.6,6.707-17.491,4.604-23.803c-2.104-6.312-4.703-6.313-4.703-6.313l-31.856-53.918
			c0,0-48.527-10.17-50.105-11.441s-25.645,14.992-25.645,14.992l-4.774,22.458l-1.932,14.498L191.622,86.128z"/>
		<path style="fill:#CE9975;" d="M191.622,84.551l-0.658,7.712c0,0-3.091,14.125-0.725,26.612
			c2.368,12.487,5.27,21.603,13.554,33.832c0,0,2.96,4.402,4.753,7.762c1.792,3.362,3.59,12.456,17.398,12.456
			s16.554-2.826,26.737-6.704c10.183-3.879,30.911-25.148,35.907-34.923l1.187-1.527c0,0,0.908,2.125,3.258,2.223
			c2.348,0.096,6.82-0.167,11.422-9.767c4.604-9.599,6.707-17.492,4.604-23.804c-2.104-6.312-4.703-6.312-4.703-6.312
			l-31.856-53.919c0,0-48.527-10.169-50.105-11.441s-25.645,14.992-25.645,14.992l-4.774,22.458l-1.932,14.497L191.622,84.551z"/>
		<path style="fill:#282829;" d="M224.892,83.169c0,0-1.446-1.84-1.052-3.551h2.235h4.867c0,0,11.065-3.156,17.303-3.55
			c6.236-0.395,12.549,4.208,13.732,4.602c1.184,0.395,2.235,1.315,2.235,1.315s-4.601-0.395-6.969-0.789
			c-2.369-0.395-8.418-0.79-8.418-0.79s-8.154,2.237-10.652,2.762c-2.498,0.526-8.546,0.526-9.336,0.526
			S224.892,83.169,224.892,83.169z"/>
		<path style="fill:#282829;" d="M220.288,69.098c0,0-3.024,5.261-0.658,9.47l1.842,1.301l-1.374-2.264
			C220.098,77.605,219.104,74.227,220.288,69.098z"/>
		<linearGradient id="SVGID_7_" gradientUnits="userSpaceOnUse" x1="210.7417" y1="171.769" x2="210.7417" y2="125.8979">
			<stop  offset="0" style="stop-color:#BD8B66"/>
			<stop  offset="0.9796" style="stop-color:#C58D67"/>
		</linearGradient>
		<path style="opacity:0.7;fill:url(#SVGID_7_);" d="M215.162,129.331c0,0,3.945,3.287,0.657,6.313l-2.762-1.315l-2.104,1.315
			l-4.604,4.701l1.054,1.874l13.546,8.417c0,0,4.604,3.157,3.288,4.471c-1.315,1.314-3.157-0.789-6.839,0.92
			s-1.184,6.969,1.315,7.497c2.499,0.526,9.075,5.129,3.287,8.154c0,0-4.392,0.786-7.719-2.238
			c-3.327-3.023-5.957-9.204-6.089-9.994c-0.132-0.789-8.549-14.203-9.732-15.912c-1.184-1.709-4.735-12.39,6.838-17.636
			c1.359,2.494,4.203,3.57,5.682,3.96C214.235,130.717,215.162,129.331,215.162,129.331z"/>
		<path style="fill:#C07055;" d="M235.546,144.716c0,0-3.157,1.42-6.708,3.274c-3.55,1.854-7.759,4.616-13.808,3.039
			c-6.049-1.578-10.218-8.416-6.884-10.125l9.502,1.272l14.609,0.562l4.019,0.91C236.276,143.648,236.886,144.098,235.546,144.716z"
			/>
		<path style="fill:#9F533F;" d="M237.388,143.928c0,0-2.105-1.71-5.13-2.236s-9.074-3.551-10.126-4.209
			c-1.052-0.657-2.787-1.578-5.668-0.394c0,0-1.696,0.788-2.091,0.132c-0.395-0.657-1.619-2.638-2.887-1.911
			s-5.217,2.896-6.229,5.034c0,0,1.014,1.535,3.118,1.404c2.104-0.133,5.472-0.188,6.392,0.076c0.921,0.263,3.683,0.527,5.655,0.263
			c1.973-0.263,1.446-0.396,3.287-0.263c1.842,0.13,6.707,0.789,7.627,0.789c0.647,0,3.376,0.65,4.939,1.035
			C236.937,143.812,237.388,143.928,237.388,143.928z"/>
		<path style="fill:#D6A083;" d="M212.269,88.167c0,0,2.892,4.733,0,10.257c-2.894,5.523-4.997,14.488-6.575,17.634
			c-1.579,3.146-1.974,4.986-1.807,6.82"/>
		<linearGradient id="SVGID_8_" gradientUnits="userSpaceOnUse" x1="260.4658" y1="103.8862" x2="260.4658" y2="45.7837">
			<stop  offset="0.0102" style="stop-color:#C58D67"/>
			<stop  offset="0.9847" style="stop-color:#CE9975"/>
		</linearGradient>
		<path style="fill:url(#SVGID_8_);" d="M226.339,98.424c0,0,4.499-5.625,10.39-2.629c5.892,2.995,6.922,6.42,15.725,3.703
			c8.802-2.718,9.149-6.205,16.965-7.125s5.339,7.217,0.999,11.512c0,0,9.434-6.487,16.058-18.655
			c6.625-12.169,8.119-10.083,8.119-10.083l-18.543-25.908l-17.305-3.457c0,0,12.522,17.462,10.672,31.073
			c-1.851,13.611-11.319,10.131-16.054,8.419s-10.583-3.17-15.32,0l-7.365,3.664L226.339,98.424z"/>
		<linearGradient id="SVGID_9_" gradientUnits="userSpaceOnUse" x1="225.2124" y1="130.041" x2="225.2124" y2="85.2759">
			<stop  offset="0" style="stop-color:#BD8B66"/>
			<stop  offset="0.9796" style="stop-color:#C58D67"/>
		</linearGradient>
		<path style="opacity:0.7;fill:url(#SVGID_9_);" d="M228.049,85.276c0,0,3.42,1.973,9.995,0c0,0-11.05,5.261-10.917,14.992
			c0.133,9.732,4.866,16.965,5.458,17.228c0.593,0.262,6.514,7.107,4.803,11.115c-1.711,4.008-4.08-1.515-4.803-3.093
			c-0.722-1.578-5.458-7.097-5.458-7.097s4.861,7.64-3.355,11.183c0,0-0.998-3.352-6.504-1.665c0,0-8.418-3.867-3.158-15.966
			S219.764,89.485,228.049,85.276z"/>
		<path style="fill:#282829;" d="M218.185,81.459c0,0,1.842,1.708,2.894,3.419c1.052,1.71,4.472,1.972,6.049,1.71
			c0,0-4.471-1.49-5.129-2.521C221.342,83.037,218.185,81.459,218.185,81.459z"/>
		<path style="fill:#282829;" d="M257.244,95.795c-13.414,7.101-19.2,0.789-20.516,0c-1.315-0.79-4.471,0-4.471,0l1.84,0.524v2.105
			l0.789-1.136l0.657,1.845l0.132,1.263h1.052v1.578l1.052-0.526l1.185,1.316l0.788-1.316l0.921,0.132l1.184,1.184h1.315h1.95
			l1.074,0.789l0.395-0.789l2.367,0.789l-0.713-1.052l2.291,1.052l-0.921-1.447l2.236,1.447l0.602-2.105l0.977,0.921l0.132-1.052
			l1.841,0.92l-1.315-2.739l1.973,1.556l-0.921-2.63h1.184v-0.527l0.922-0.657V95.795z"/>
		<path style="fill:#282829;" d="M233.834,92.901c0,0,1.579-1.052,5.787-2.631c4.208-1.578,7.233-1.314,7.627-1.314
			c0.395,0-0.394,0-0.394,0s-5.13,1.037-6.707,1.964C238.569,91.849,233.834,92.901,233.834,92.901z"/>
		<linearGradient id="SVGID_10_" gradientUnits="userSpaceOnUse" x1="202.3696" y1="114.0137" x2="202.3696" y2="37.7461">
			<stop  offset="0.0102" style="stop-color:#C58D67"/>
			<stop  offset="0.9847" style="stop-color:#CE9975"/>
		</linearGradient>
		<path style="fill:url(#SVGID_10_);" d="M208.437,37.746c0,0-9.517,13.27-4.783,25.5c4.735,12.23,4.933,9.188,4.933,14.359
			s5.326,2.264,5.326,2.264s3.072,11.827-2.639,20.649c-2.301,6.146-4.736,13.496-4.736,13.496s1.337-9.539,2.087-13.682
			c0.75-4.142,2.37-6.066,0-6.316c-2.37-0.249-12.27,2.184-12.27,2.184l-1.974-2.378c0,0-1.498-1.49-2.102-6.574
			c-0.603-5.084-2.587-6.377-2.236-8.548c0.352-2.17,1.445-5.524,1.445-5.524s-0.886-7.872,1.284-16.749
			C194.942,47.548,206.069,37.895,208.437,37.746z"/>
		<path style="fill:#282829;" d="M206.349,83.037c0,0,0.001-4.208-3.024-5.786c-3.024-1.578-5.261-1.208-5.261-1.208
			s-1.841-2.08-2.104-2.869c-0.264-0.79-2.366-1.841-4.472,0c0,0-1.577,1.71-0.525,3.682c0,0,0.393-1.841,1.446-1.841
			c1.053,0,3.024,2.579,3.024,2.579s2.105,3.077,7.234,4.392C207.795,83.301,206.349,83.037,206.349,83.037z"/>
		<path style="fill:#282829;" d="M210.953,92.374c0,0-0.179-2.531-6.862-3.435c-6.684-0.905-7.736-0.772-7.736-0.772
			s7.76,1.569,8.812,2.1C206.217,90.796,209.902,90.402,210.953,92.374z"/>
		<path style="fill:#282829;" d="M203.653,66.073c0,0,2.958,6.314,2.169,7.366s-1.731,1.052-1.731,1.052s1.584,0.657,2.446-0.921
			C207.4,71.992,204.379,66.599,203.653,66.073z"/>
		<linearGradient id="SVGID_11_" gradientUnits="userSpaceOnUse" x1="199.5649" y1="142.2183" x2="199.5649" y2="82.3833">
			<stop  offset="0" style="stop-color:#BD8B66"/>
			<stop  offset="0.9796" style="stop-color:#C58D67"/>
		</linearGradient>
		<path style="fill:url(#SVGID_11_);" d="M191.808,82.383c0,0,1.548,6.406,2.573,11.438c0,0-0.393,4.863,13.154,0l1.971,0.353
			c0,0-0.002,5.699-5.853,8.198c-5.85,2.498-9.006,5.26-9.006,9.337s-0.136,14.376,3.089,21.457c0,0-1.673,6.653-0.197,9.052
			c0,0-5.799-13.475-7.3-23.343c-1.5-9.868,0.104-22.009,0.989-28.608C192.115,83.668,191.808,82.383,191.808,82.383z"/>
		<path style="fill:#282829;" d="M209.506,86.676c0,0-2.499-2.679-7.365-3.618c0,0-2.104,0.413-2.762,0c0,0,3.42,0.742,5.064,1.809
			C206.086,85.935,209.506,86.676,209.506,86.676z"/>
		<path style="fill:#282829;" d="M194.381,93.821c0,0,1.316,1.71,4.474,1.623c3.155-0.087,9.994-2.543,9.994-2.543l2.104,1.315
			l-1.447-0.042l-1.842,2.54l-1.127-0.526l-0.715,0.526h-0.92l-0.812,1.71l-0.767-0.658l-1.972,1.732v-1.074l-1.053,1.074
			l-0.658-1.074l-1.072,1.074v-1.074l-1.821,1.074l-0.656-1.074l-1.711,1.074h-0.919v-1.074h-0.921v-0.527l0.921-1.698l-1.654,0.039
			L194.381,93.821z"/>
		<linearGradient id="SVGID_12_" gradientUnits="userSpaceOnUse" x1="238.4189" y1="77.4136" x2="238.4189" y2="58.1187">
			<stop  offset="0.0102" style="stop-color:#C58D67"/>
			<stop  offset="0.9847" style="stop-color:#CE9975"/>
		</linearGradient>
		<path style="fill:url(#SVGID_12_);" d="M227.72,69.488c-0.566,3.454-2.048,3.274,1.118,6.555c3.166,3.281,5.197-0.184,8.55-1.559
			c3.352-1.375,11.374-1.967,13.281-1.375c0,0-12.463-3.157-14.254-9.47c-1.791-6.312-11.654-7.792-10.076-1.381
			C226.339,62.259,228.287,66.032,227.72,69.488z"/>
		<path style="fill:#282829;" d="M209.152,105.256c0,0-2.354,8.383-3.152,10.131c-0.797,1.749-2.807,7.048-1.557,8.982
			c1.25,1.936,1.717,3.25,9.111,5.881c0,0-6.273-0.525-8.383-3.023c-2.108-2.5-2.374-3.947-1.519-6.972
			c0.857-3.024,1.514-4.47,1.908-6.048C205.957,112.629,209.152,105.256,209.152,105.256z"/>
		<path style="fill:#D6A083;" d="M203.887,122.878c0,0,0.93,1.323,3.077,0.402c2.147-0.921,3.483-2.762,3.483-2.762v-3.288
			c0,0,2.785-12.099,4.803-16.702c1.489-3.403,5.96-12.33,5.96-12.33s-2.122-0.416-2.859-1.578c0,0-0.204,4.333-5.97,16.945
			C206.613,116.179,204.842,114.717,203.887,122.878z"/>
		<path style="fill:#282829;" d="M207.169,83.178c0,0,6.178,1.817,6.546,6.6c0.367,4.784-2.585,10.789-2.954,11.959
			c-0.367,1.17-4.224,11.779-4.224,11.779s6.371-19.485,6.582-23.249c0.21-3.764-6.771-7.23-6.771-7.23L207.169,83.178z"/>
		<path style="fill:#282829;" d="M258.56,92.901c0,0-3.157-2.761-4.735-3.286c0,0,3.288,2.761,3.42,3.946
			c0.132,1.183,1.709,1.709,2.499,1.052c0.788-0.658,2.367-1.712,2.367-1.712l-2.895,1.054L258.56,92.901z"/>
		<path style="fill:#282829;" d="M205.258,140.344c0,0,1.477,1.592,2.14,4.429c0.663,2.838,4.211,5.79,7.633,6.256
			c3.421,0.466,5.403,0.961,8.563-0.483c0,0-5.841,1.143-11.212-1.224c0,0-3.141-2.313-4.005-5.395c-0.865-3.082,0.875-1.833,0-2.18
			c0,0,4.261-0.186,6.05,0.866c1.788,1.052,4.682-0.263,8.495,0.133c3.814,0.394,6.839,0.13,6.839,0.13s-5.146-1.417-7.241-1.105
			c-2.096,0.314-5.779,0.837-7.751,0.051c-1.973-0.788-8.076-0.393-8.419-1.48c-0.342-1.087,5.138-5.034,5.138-5.034
			S205.479,138.468,205.258,140.344z"/>
		<linearGradient id="SVGID_13_" gradientUnits="userSpaceOnUse" x1="216.5508" y1="135.3101" x2="216.5508" y2="127.8569">
			<stop  offset="0" style="stop-color:#BD8B66"/>
			<stop  offset="0.9796" style="stop-color:#C58D67"/>
		</linearGradient>
		<path style="fill:url(#SVGID_13_);" d="M215.162,129.331c0,0,3.813,3.932,0.987,5.979c0,0,3.2-1.513,1.043-5.979
			c0,0-0.232-1.551-0.079-1.471c0.154,0.078,0.154,0.078,0.154,0.078S215.16,127.616,215.162,129.331z"/>
		<path style="fill:#282829;" d="M225.213,116.312c0,0,4.107,4.361,3.273,7.901c-0.831,3.54-4.778,6.037-6.75,6.038
			c0,0,2.288-0.65,1.408-1.64c-0.881-0.989-6.201-0.963-7.895-0.481c0,0,6.479-1.686,8.521,0.481c0,0,0.464,0.399,0.924,0
			c0.46-0.398,2.727-1.996,3.222-4.398C228.574,120.847,225.213,116.312,225.213,116.312z"/>
		<path style="fill:#282829;" d="M215.162,129.331c0,0-1.932-1.011,0.088-1.201l1.863-0.27
			C217.113,127.86,215.031,128.012,215.162,129.331z"/>
		<path style="fill:#282829;" d="M228.598,140.544c0,0,5.807,1.479,7.298,2.432c1.492,0.952,3.076,2.139,3.076,2.139l-2.557-1.187
			L228.598,140.544z"/>
		<linearGradient id="SVGID_14_" gradientUnits="userSpaceOnUse" x1="289.7754" y1="112.2095" x2="310.1787" y2="112.2095">
			<stop  offset="0.0102" style="stop-color:#C58D67"/>
			<stop  offset="0.9847" style="stop-color:#CE9975"/>
		</linearGradient>
		<path style="fill:url(#SVGID_14_);" d="M289.775,129.771c0,0,4.423-8.727,5.211-13.068v4.998l4.679-0.526l2.555-0.395l0.836-2.36
			l2.036-8.895l-0.473-7.071c0,0-1.084-5.872-2.926-5.872c-1.84,0,1.711-4.326,1.711-4.326s3.023-1.327,5.654,6.167
			c2.631,7.495,0.01,14.182-1.573,17.086c-1.583,2.904-4.487,13.422-12.044,16.711C295.441,132.222,290.743,132.712,289.775,129.771
			z"/>
		<linearGradient id="SVGID_15_" gradientUnits="userSpaceOnUse" x1="295.4414" y1="112.0239" x2="303.3066" y2="112.0239">
			<stop  offset="0" style="stop-color:#BD8B66"/>
			<stop  offset="0.9796" style="stop-color:#C58D67"/>
		</linearGradient>
		<path style="fill:url(#SVGID_15_);" d="M295.808,102.873c0,0,5.954,0.89,7.499,10.778v3.678l-1.218,2.794l-2.424,1.052h-3.29
			l-0.934-0.938l0.467-3.926l1.708-3.029v-2.367l-2.175-3.256L295.808,102.873z"/>
		<path style="fill:#282829;" d="M294.725,104.605c-0.316,2.212-0.604,3.431,0.394,4.734c0.999,1.301,1.464,2.218,1.184,3.814
			c-0.56,3.19-0.841,1.704-1.315,3.55c-0.473,1.847-2.104,5.919,0.79,5.919s3.419-1.447,5.261-0.659
			c1.84,0.79,3.023-2.756,3.023-5.652c0-2.896,2.629-8.946,0-15.521c0,0,0.79,7.892-1.052,13.941c0,0,0.658,5.128-0.92,5.391
			c-1.579,0.263-3.286-0.263-4.472,0.789c-1.185,1.052-3.264-1.307-2.367-2.498c0.896-1.192,4.107-4.71,3.025-6.707
			c-1.083-1.998-1.71-4.047-1.71-4.047s-1.973-4.24,0.131-6.869l1.315-2.513C298.012,98.277,295.25,100.923,294.725,104.605z"/>
		<path style="fill:#282829;" d="M194.381,93.821c0,0-1.009-0.534-1.556-3.554v-2.758c0,0,0.703,5.727,3.597,7.598"/>
		<linearGradient id="SVGID_16_" gradientUnits="userSpaceOnUse" x1="263.6836" y1="171.769" x2="263.6836" y2="70.7427">
			<stop  offset="0.0102" style="stop-color:#C58D67"/>
			<stop  offset="0.9847" style="stop-color:#CE9975"/>
		</linearGradient>
		<path style="fill:url(#SVGID_16_);" d="M287.096,70.743c0,0-3.813,29.261-25.118,38.467c-21.304,9.205-11.835,22.428-8.415,25.942
			c3.419,3.514,2.791,26.585-17.147,36.617c0,0,23.188-3.475,38.714-24.685c3.234-4.418,1.84-16.196,6.313-24.46
			c4.473-8.266,8.556-13.223,9.406-21.54C291.698,92.767,287.096,70.743,287.096,70.743z"/>
		<path style="fill:#282829;" d="M191.323,82.898l0.002-2.884c-0.407-1.417-1.697-4.708-1.076-6.312
			c1.628-4.208,0.451-18.675,6.238-25.514c5.785-6.839,18.937-15.781,21.566-15.781s4.208,2.104,7.365,3.157
			c3.155,1.051,3.682-3.157,9.994-3.157c6.312,0,8.944,7.892,15.256,8.417c6.312,0.526,19.988,1.052,29.983,16.306
			c9.995,15.257,0.525,13.151,9.469,17.887c0,0-9.469,18.817,0,21.77c0,0,3.683,2.426,5.787-2.307c0,0,5.26,3.156,7.363-3.156
			c2.105-6.313,1.579-4.735,3.683-3.156c2.104,1.578,3.024,4.992,3.024,4.992l0.921,10.916l-1.118,11.445
			c0,0,2.433-0.525,2.433-8.942c0-8.417,2.105-14.729,4.209-19.463c2.104-4.734,8.417-28.932,0-42.083
			c-8.417-13.15-8.417-22.619-15.255-26.828c-6.838-4.208-31.037-25.249-66.281-15.78c0,0-10.521,1.053-20.516,9.995
			c0,0-26.273,2.105-25.498,23.672c0,0-2.382,8.416-2.908,11.573c-0.524,3.156-3.631,12.625,0,19.463
			c0.909,1.71,2.336,8.77,3.091,10.521C191.323,82.898,191.323,82.898,191.323,82.898z"/>
		<linearGradient id="SVGID_17_" gradientUnits="userSpaceOnUse" x1="142.5151" y1="274.0142" x2="374.1191" y2="274.0142">
			<stop  offset="0.0102" style="stop-color:#C58D67"/>
			<stop  offset="0.9847" style="stop-color:#CE9975"/>
		</linearGradient>
		<path style="fill:url(#SVGID_17_);" d="M319.053,189.956c0,0,14.203,2.63,30.511,4.734s34.719,16.307,17.885,73.12
			C350.614,324.621,318.265,383.8,318.265,383.8l-17.032-2.59c-11.666-2.704-53.194-5.037-53.194-5.037l-16.795-3.865l-6.876-8.761
			l-49.485-102.412l-3.144-5.898c-17.307-11.687-24.497-44.457-24.497-44.457s-6.786-23.761-4.095-27.795
			c0.922-1.381,1.356-2.716,2.502-3.254c2.198-1.034,5.029-0.395,5.029-0.395s1.112-5.528,2.538-6.847
			c1.426-1.318,5.253-0.877,8.117,0.896c0,0-0.139-6.722,2.995-7.101c3.133-0.379,9.33,2.893,9.33,2.893s-0.814-3.068,0.652-4.454
			c0.88-0.833,3.427-0.418,5.098-0.168c4.455,0.665,9.713,8.83,9.713,8.83s12.504,16.468,13.197,22.212
			c0,0,8.239,7.706,6.975,19.604c-2.583,9.32-1.674,25.466-0.313,27.949c1.36,2.485,36.429,52.013,36.429,52.013
			s23.145,31.034,33.666,35.243l18.674-56.286c0,0-9.469-15.781,0.264-49.973C298.012,224.148,308.006,193.637,319.053,189.956z"/>
		<path d="M297.748,274.121l9.73-22.619c0,0-1.052-14.73,0-18.938c0,0,0.139,12.623,2.699,13.676v4.209L294.1,285.117
			L297.748,274.121z"/>
		<path style="fill:#282829;" d="M276.361,328.935c0,0,10.163,2.525,14.591,15.15l3.147,7.364l-6.525-7.364
			C287.574,344.085,284.864,336.232,276.361,328.935z"/>
		<linearGradient id="SVGID_18_" gradientUnits="userSpaceOnUse" x1="290.7598" y1="278.3257" x2="342.7246" y2="278.3257">
			<stop  offset="0" style="stop-color:#CE9975"/>
			<stop  offset="0.8826" style="stop-color:#D4A989"/>
		</linearGradient>
		<path style="opacity:0.7;fill:url(#SVGID_18_);" d="M290.952,328.935c0,0,8.168-41.334,18.923-54.386
			c10.756-13.053,9.968-48.561,18.646-53.294c8.68-4.735,14.203-7.891,14.203,0s-7.364,30.438-7.364,30.438l-14.685,33.424
			c0,0-11.122,54.866-15.446,55.075C300.905,340.402,289.116,337.293,290.952,328.935z"/>
		<linearGradient id="SVGID_19_" gradientUnits="userSpaceOnUse" x1="191.8076" y1="338.1714" x2="359.2637" y2="338.1714">
			<stop  offset="0" style="stop-color:#BD8B66"/>
			<stop  offset="0.9796" style="stop-color:#C58D67"/>
		</linearGradient>
		<path style="fill:url(#SVGID_19_);" d="M359.264,292.542c0,0-29.953,73.109-40.999,91.258l-33.033-6.305l-55.472-7.079
			c0,0-17.883-33.322-37.952-74.251c0,0,42.132,62.27,59.833,63.905c17.702,1.636,28.975-4.792,39.12,0
			c10.145,4.792,23.559,5.583,34.604-8.621C336.412,337.246,359.264,292.542,359.264,292.542z"/>
		<path d="M143.146,198.357c0,0-0.735-11.427,0-16.95c0,0,2.779-4.413,6.887-2.798c0,0,0.951-5.881,3.318-7.064
			c2.366-1.184,7.067,0.313,7.067,0.313s1.078-5.311,3.909-5.573c0,0,5.367-0.864,8.636,2c0,0-1.234-4.134,3.665-3.909
			c4.898,0.225,5.23,0.254,9.257,4.238c4.025,3.983,7.118,8.344,7.118,8.344l-8.091-7.978c0,0-4.646-4.472-8.196-3.945
			c-3.551,0.526-1.863,2.62-1.863,3.579c0,0.958,6.312,11.216,6.312,11.216l5.129,11.836l-6.51-11.836l-6.51-10.06
			c0,0-5.168-4.311-8.985-2.86s-2.167,7.266-2.167,7.266l5.171,9.6l5.981,11.639l-8.087-10.641l-4.078-10.598
			c0,0-3.684-2.752-6.486-2.433c-2.804,0.319-2.652,5.129-2.652,8.481c0,3.354,2.564,11.245,2.564,11.245l3.944,8.679
			c0,0-2.48,0.593-2.127,1.184l-2.804-9.469l-2.762-11.046c0,0-1.432-2.323-4.469-1.345c-0.215,0.069-0.439,0.156-0.67,0.26
			c-3.498,1.577-1.371,18.247-1.371,18.247l2.176,9.646c0,0,7.968,34.252,24.497,44.457l7.229,14.354l-8.06-13.355
			c0,0-10.85-7.167-15.387-19.792C150.195,220.664,143.754,208.33,143.146,198.357z"/>
		<polyline style="fill:#282829;" points="227.917,369.597 318.265,383.8 332.927,379.558 346.67,377.093 316.742,386.562 
			218.336,369.036 		"/>
		<path style="fill:#282829;" d="M315.897,424.68c0,0,16.044,5.215,30.772,5.465c14.728,0.249,43.664,0.423,43.664,0.423
			l16.832-0.63c0,0,7.783,1.008,10.521,0.63c2.079-0.285,5.248-0.283,7.228-2.734c0.627-0.776,1.136-1.799,1.452-3.153
			c0,0,0.525-2.565-1.579-2.785c-2.103-0.22-16.306-3.901-16.306-3.901l-16.308-1.315l15.52,2.63l16.567,3.813
			c0,0,1.71,0.263,0.788,2.234c-0.921,1.974-4.209,5.523-17.491,3.157c0,0-39.057,2.104-60.888,0.657c0,0-12.098,0.171-31.3-5.504"
			/>
		<path style="fill:#282829;" d="M424.786,428.25c0,0,6.048-1.053,6.312-3.946c0.263-2.892,0.131-3.155,0-3.681
			c-0.131-0.527-11.57-4.471-11.57-4.471L409.4,411.22l15.911,8.35l4.472,1.315c0,0,0.789,2.631-0.132,3.682
			c-0.922,1.052-1.367,2.278-3.905,1.929"/>
		<path style="fill:#282829;" d="M430.047,426.671c0,0,4.867-1.314,4.208-7.891l-16.67-10.835l-13.512-7.97l-17.754-7.693
			l18.544,9.666c0,0,8.349,4.471,12.426,7.232s15.912,9.994,15.912,9.994s0.27,5.771-3.156,6.576l-1.98,1.515L430.047,426.671z"/>
		<path style="fill:#282829;" d="M413.729,405.636c0,0-5.051-12.337-8.658-14.989c-1.378-1.013-5.653-3.252-10.412-5.632
			c-7.705-3.85-16.68-8.074-16.68-8.074l17.552,9.621c0,0,9.794,4.471,10.846,6.971c1.053,2.498,6.174,11.572,6.174,11.572"/>
		<path style="fill:#282829;" d="M199.81,189.583c0,0,2.858,3.858,3.844,13.326l-0.159-5.021l-0.826-5.236L199.81,189.583z"/>
		<path style="fill:#282829;" d="M208.882,224.016c0,0,0.047-1.922,0.197-2.662c0.564-2.809,0.948-9.24-0.019-12.703
			c0,0-0.433,9.859-0.851,13.357s-0.098,10.556-0.098,10.556L208.882,224.016z"/>
		<path style="opacity:0.5;fill:#CE9975;" d="M273.617,151.508c0,0-0.465,9.646-10.588,23.192
			c-10.121,13.545-28.346,53.586-22.087,68.909c14.904,0.529,33.574-23.107,33.574-23.107s-9.088-28.917-3.821-43.092
			c5.268-14.175,7.636-25.06,11.828-35.77L273.617,151.508"/>
		<path style="opacity:0.3;fill:#CF5235;" d="M209.651,220.947c0,0,1.574-2.432,2.794-2.083c1.219,0.35,1.742-3.463,1.742-3.463
			s2.284-1.591,3.321-1.417c1.036,0.174,1.734,1.201,1.734-0.619c0-1.822,0.362-3.215,2.446-3.041
			c2.085,0.174,1.216,1.743,2.783,1.568c1.568-0.174,1.238,3.572,1.055,6.231c-0.185,2.658,1.968,4.053,3.07,4.053
			c1.104,0,2.496-1.046,3.369,0c0.131,0.157-1.624,1.89-1.743,3.835c-0.063,1.047,1.521,1.96,1.48,3.166
			c-0.075,2.229-1.464,3.65-1.132,5.2c0.181,0.847,1.866,2.337,2.267,2.614c0.654,0.454,1.257-0.754,1.798-2.693
			c0.282-1.008,5.521,0.079,3.604-3.232c-1.917-3.313-2.614-5.928-0.349-6.973c2.267-1.046,1.396-4.14,3.051-4.795
			c1.656-0.654,1.656,0.438,2.702,0.438s2.238-6.623,3.995-5.752s3.283,1.393,4.002,0.697c0.718-0.697,2.635-4.911,4.378-4.373
			c1.743,0.539,3.527,5.289,4.553,5.093c1.025-0.197,5.033-1.591,5.383-0.894c0.349,0.696,0.997,0.916,3.462,0.894
			s4.949-2.812,5.711-2.637c0.762,0.174,3.125,0.523,4.472-1.046c1.346-1.569,2.665-3.694,3.836-3.067
			c0,0-14.691,19.626-22.535,25.9c-3.196,2.557-12.75,8.907-19.959,9.058c-7.629,0.158-16.012-3.141-23.438-11.329
			C214.722,229.212,212.074,225.46,209.651,220.947z"/>
		<path style="opacity:0.2;fill:#CF5235;" d="M267.352,226.076c0,0-1.233-4.596-3.667-4.247c-2.434,0.35-4.117,2.909-5.367,2.762
			s-3.336-3.845-4.21-2.78s0.347,2.063-0.874,4.266s-0.169,3.945,0.874,4.119c1.043,0.176,1.043,3.836,1.043,3.836
			s0.582,1.568,3.167,0c2.585-1.569,2.584,0.521,2.584,0.521s6.858-5.714,7.612-7.562L267.352,226.076z"/>
		<path style="opacity:0.3;fill:#CF5235;" d="M221.323,229.499c-2.035,1.907-0.686,1.896-1.731,1.558
			c-1.045-0.338-1.9-1.558-2.083-3.563c-0.183-2.004-2.645-3.094-3.669-2.178c-1.024,0.914-0.871,1.742-0.871,1.742
			s7.32,10.111,14.293,12.898c6.972,2.789,9.153,3.259,9.153,3.259s1.311-2.562,0-2.388c-1.311,0.176-2.879-0.521-3.925-1.916
			c-1.046-1.396-4.184,0-5.055-1.221s-4.182-1.568-4.008-2.963c0.173-1.395,3.311-0.869,2.788-2.875
			c-0.523-2.006-1.221-3.785-0.523-3.68s0.176-3.861-1.22-3.186c-1.395,0.676-5.055-2.748-5.055-0.078
			C219.418,227.581,222.216,228.663,221.323,229.499z"/>
		<path style="opacity:0.3;fill:#CF5235;" d="M241.431,214.561c0,0.659,0.085,1.188-0.573,1.188c-0.659,0-1.193-0.533-1.193-1.192
			s0.534-1.192,1.193-1.192C241.516,213.365,241.431,213.904,241.431,214.561z"/>
		<path style="opacity:0.3;fill:#CF5235;" d="M272.229,212.665c0,0.659,0.085,1.188-0.574,1.188c-0.658,0-1.192-0.534-1.192-1.192
			c0-0.659,0.534-1.193,1.192-1.193C272.313,211.467,272.229,212.007,272.229,212.665z"/>
		<path style="opacity:0.2;fill:#CF5235;" d="M261.131,208.414c-0.381,0.071-0.671,0.21-0.789-0.438
			c-0.119-0.647,0.092-1.229,0.472-1.3c0.38-0.068,0.784,0.399,0.903,1.047C261.837,208.371,261.51,208.344,261.131,208.414z"/>
		<path style="opacity:0.3;fill:#CF5235;" d="M237.103,222.861c-0.381,0.07-0.671,0.21-0.789-0.438
			c-0.119-0.647,0.092-1.229,0.472-1.3c0.38-0.068,0.784,0.398,0.903,1.047C237.809,222.818,237.481,222.791,237.103,222.861z"/>
		<path style="opacity:0.3;fill:#CF5235;" d="M247.366,227.821c-0.382,0.07-0.671,0.21-0.79-0.438
			c-0.118-0.647,0.092-1.229,0.472-1.3c0.38-0.068,0.784,0.399,0.904,1.047C248.071,227.778,247.745,227.751,247.366,227.821z"/>
		<path style="opacity:0.3;fill:#CF5235;" d="M242.256,236.473c-0.381,0.071-0.671,0.21-0.789-0.438
			c-0.118-0.646,0.092-1.229,0.472-1.3c0.38-0.068,0.784,0.399,0.904,1.047C242.962,236.431,242.635,236.404,242.256,236.473z"/>
		<path style="opacity:0.3;fill:#CF5235;" d="M235.669,230.994c-0.381,0.07-0.671,0.21-0.79-0.439
			c-0.118-0.646,0.092-1.229,0.473-1.299c0.379-0.069,0.784,0.398,0.903,1.046C236.374,230.951,236.048,230.923,235.669,230.994z"/>
		<path style="opacity:0.3;fill:#CF5235;" d="M228.67,231.898c-0.381,0.07-0.671,0.211-0.79-0.438
			c-0.118-0.647,0.092-1.229,0.472-1.3c0.381-0.068,0.785,0.399,0.904,1.047C229.375,231.855,229.049,231.829,228.67,231.898z"/>
		<path style="opacity:0.2;fill:#CF5235;" d="M215.164,210.396c-0.381,0.071-0.671,0.21-0.79-0.438
			c-0.118-0.647,0.092-1.229,0.472-1.3c0.381-0.068,0.785,0.399,0.904,1.047C215.869,210.353,215.543,210.327,215.164,210.396z"/>
		<path style="opacity:0.2;fill:#CF5235;" d="M249.842,210.396c-0.381,0.071-0.672,0.21-0.79-0.438
			c-0.118-0.647,0.092-1.229,0.472-1.3c0.381-0.068,0.785,0.399,0.904,1.047C250.547,210.353,250.221,210.327,249.842,210.396z"/>
		<path style="opacity:0.3;fill:#CF5235;" d="M251.413,211.84c-0.349,0.559-0.559,1.053-1.117,0.704
			c-0.558-0.35-0.728-1.085-0.378-1.644c0.35-0.559,1.086-0.729,1.645-0.378C252.121,210.871,251.763,211.283,251.413,211.84z"/>
		<path style="opacity:0.3;fill:#CF5235;" d="M250.014,220.296c-0.349,0.559-0.559,1.053-1.117,0.703
			c-0.558-0.351-0.727-1.086-0.378-1.645c0.35-0.559,1.086-0.729,1.645-0.378C250.722,219.327,250.363,219.738,250.014,220.296z"/>
		<path style="opacity:0.3;fill:#CF5235;" d="M252.13,234.545c-0.349,0.559-0.559,1.053-1.117,0.703
			c-0.558-0.351-2.314-1.356-1.965-1.915c0.17-0.271,0.689,0.175,1.478-1.307c0.789-1.482,1.467,1.02,1.754,1.199
			C252.838,233.576,252.479,233.988,252.13,234.545z"/>
		<path style="opacity:0.3;fill:#CF5235;" d="M268.841,219.156c-0.625,0.209-1.1,0.459-1.311-0.165
			c-0.208-0.625-0.926-2.518-0.302-2.728c0.303-0.103,0.422,0.572,1.972-0.072s0.485,1.719,0.593,2.041
			C270.003,218.856,269.465,218.947,268.841,219.156z"/>
		<path style="opacity:0.3;fill:#CF5235;" d="M268.951,209.584c-0.15,0.411-0.218,0.762-0.629,0.612
			c-0.41-0.15-1.693-0.561-1.543-0.973c0.071-0.199,0.472,0.019,0.778-1.054c0.307-1.073,1.096,0.459,1.307,0.538
			C269.276,208.855,269.101,209.172,268.951,209.584z"/>
		<path style="opacity:0.3;fill:#CF5235;" d="M237.288,217.023c-0.149,0.411-0.217,0.762-0.629,0.612
			c-0.41-0.15-1.693-0.561-1.543-0.974c0.071-0.199,0.472,0.019,0.778-1.054c0.308-1.073,1.096,0.458,1.307,0.537
			C237.613,216.293,237.438,216.611,237.288,217.023z"/>
		<path style="opacity:0.3;fill:#CF5235;" d="M234.151,228.458c-0.15,0.411-0.218,0.762-0.63,0.612
			c-0.41-0.149-1.693-0.561-1.543-0.974c0.071-0.199,0.472,0.019,0.778-1.054c0.308-1.073,1.096,0.459,1.308,0.537
			C234.476,227.729,234.3,228.046,234.151,228.458z"/>
		<path style="opacity:0.3;fill:#CF5235;" d="M238.006,238.332c-0.15,0.411-0.218,0.762-0.63,0.612
			c-0.41-0.149-1.693-0.561-1.543-0.974c0.071-0.199,0.472,0.019,0.778-1.054c0.308-1.073,1.096,0.459,1.308,0.537
			C238.33,237.602,238.154,237.919,238.006,238.332z"/>
		<path style="opacity:0.3;fill:#CF5235;" d="M215.385,221.378c-0.625,0.209-1.101,0.459-1.311-0.166
			c-0.209-0.625-0.927-2.518-0.303-2.728c0.304-0.103,0.422,0.573,1.973-0.071c1.549-0.645,0.484,1.719,0.592,2.041
			C216.547,221.078,216.009,221.169,215.385,221.378z"/>
		<path style="opacity:0.3;fill:#CF5235;" d="M222.443,219.168c-0.629,1.432-1.057,2.614-1.659,2.35
			c-0.602-0.269-3.398-1.868-2.77-3.298c0.304-0.691,1.825,2.326,3.313-1.352c1.488-3.676,1.422-0.662,1.731-0.524
			C223.662,216.608,223.07,217.742,222.443,219.168z"/>
		<path style="opacity:0.3;fill:#CF5235;" d="M249.521,240.869c-1.1,1.11-3.117,1.162-3.584,0.699
			c-0.465-0.467-2.503-2.963-1.402-4.072c0.531-0.536,0.869,2.826,3.576-0.073c2.707-2.898,1.565-0.108,1.805,0.13
			C250.385,238.015,250.619,239.761,249.521,240.869z"/>
		<path style="opacity:0.3;fill:#CF5235;" d="M262.771,220.296c-0.35,0.559-0.559,1.053-1.117,0.703
			c-0.558-0.351-0.728-1.086-0.378-1.645c0.349-0.559,1.085-0.729,1.644-0.378C263.479,219.327,263.121,219.738,262.771,220.296z"/>
		<path style="opacity:0.3;fill:#CF5235;" d="M256.294,214.898c-0.349,0.559-0.559,1.053-1.117,0.704
			c-0.558-0.351-0.728-1.086-0.378-1.645s1.086-0.729,1.645-0.378C257.002,213.929,256.644,214.34,256.294,214.898z"/>
		<path style="opacity:0.3;fill:#CF5235;" d="M242.053,224.93c-0.35,0.56-0.559,1.054-1.117,0.704
			c-0.558-0.351-0.728-1.086-0.378-1.645s1.086-0.729,1.645-0.378C242.761,223.961,242.402,224.373,242.053,224.93z"/>
		<path style="opacity:0.2;fill:#CF5235;" d="M228.841,220.294c-0.349,0.559-0.559,1.053-1.117,0.704
			c-0.558-0.351-0.727-1.086-0.378-1.645c0.35-0.559,1.086-0.728,1.645-0.378S229.19,219.737,228.841,220.294z"/>
		<path style="opacity:0.3;fill:#CF5235;" d="M212.805,214.162c-0.35,0.559-0.559,1.053-1.117,0.704
			c-0.558-0.351-0.728-1.086-0.378-1.645c0.349-0.559,1.085-0.729,1.644-0.378C213.513,213.193,213.154,213.604,212.805,214.162z"/>
	</g>
	<g>
		<path style="fill:#FFFFFF;" d="M352.378,44.617h7.594v1.527h-5.773v4.686h5.334v1.506h-5.334v6.38h-1.82V44.617z"/>
		<path style="fill:#FFFFFF;" d="M369.865,52.106h-5.48v5.083h6.108v1.527h-7.929v-14.1h7.615v1.527h-5.795V50.6h5.48V52.106z"/>
		<path style="fill:#FFFFFF;" d="M376.139,58.717l-4.602-14.1h1.966l2.197,6.945c0.606,1.904,1.129,3.619,1.506,5.272h0.042
			c0.397-1.632,0.983-3.41,1.61-5.251l2.385-6.966h1.946l-5.042,14.1H376.139z"/>
		<path style="fill:#FFFFFF;" d="M392.015,52.106h-5.48v5.083h6.108v1.527h-7.929v-14.1h7.615v1.527h-5.795V50.6h5.48V52.106z"/>
		<path style="fill:#FFFFFF;" d="M395.005,44.805c0.921-0.188,2.238-0.293,3.494-0.293c1.945,0,3.2,0.355,4.079,1.15
			c0.711,0.628,1.108,1.59,1.108,2.678c0,1.862-1.171,3.096-2.656,3.599v0.063c1.087,0.376,1.736,1.381,2.07,2.845
			c0.461,1.966,0.795,3.326,1.088,3.87h-1.883c-0.229-0.397-0.544-1.611-0.941-3.368c-0.418-1.945-1.171-2.678-2.824-2.74h-1.715
			v6.108h-1.82V44.805z M396.825,51.228h1.861c1.946,0,3.18-1.067,3.18-2.678c0-1.82-1.317-2.615-3.242-2.636
			c-0.879,0-1.506,0.083-1.799,0.167V51.228z"/>
	</g>
	<g>
		<path style="fill:#FFFFFF;" d="M354.198,217.753v14.1h-1.82v-14.1H354.198z"/>
		<path style="fill:#FFFFFF;" d="M360.055,219.301h-4.288v-1.548h10.438v1.548h-4.31v12.552h-1.841V219.301z"/>
		<path style="fill:#FFFFFF;" d="M377.062,231.392c-0.67,0.336-2.009,0.67-3.724,0.67c-3.975,0-6.967-2.51-6.967-7.133
			c0-4.414,2.992-7.406,7.364-7.406c1.757,0,2.865,0.377,3.347,0.627l-0.439,1.486c-0.69-0.335-1.673-0.586-2.845-0.586
			c-3.306,0-5.502,2.113-5.502,5.815c0,3.452,1.987,5.669,5.418,5.669c1.109,0,2.238-0.229,2.971-0.586L377.062,231.392z"/>
		<path style="fill:#FFFFFF;" d="M381.159,217.753v5.898h6.819v-5.898h1.841v14.1h-1.841v-6.611h-6.819v6.611h-1.82v-14.1H381.159z"
			/>
		<path style="fill:#FFFFFF;" d="M394.797,217.753v14.1h-1.82v-14.1H394.797z"/>
		<path style="fill:#FFFFFF;" d="M397.976,231.853v-14.1h1.987l4.519,7.133c1.046,1.653,1.862,3.139,2.531,4.582l0.042-0.021
			c-0.167-1.883-0.209-3.598-0.209-5.795v-5.898h1.716v14.1h-1.842l-4.477-7.154c-0.983-1.569-1.925-3.18-2.636-4.707l-0.063,0.021
			c0.104,1.778,0.146,3.473,0.146,5.815v6.025H397.976z"/>
		<path style="fill:#FFFFFF;" d="M422.47,231.226c-0.815,0.292-2.426,0.773-4.33,0.773c-2.134,0-3.891-0.544-5.271-1.861
			c-1.214-1.172-1.967-3.055-1.967-5.252c0.021-4.205,2.908-7.279,7.636-7.279c1.632,0,2.908,0.355,3.515,0.648l-0.439,1.484
			c-0.753-0.334-1.694-0.605-3.117-0.605c-3.431,0-5.669,2.133-5.669,5.669c0,3.577,2.154,5.69,5.439,5.69
			c1.192,0,2.008-0.168,2.427-0.377v-4.205h-2.866v-1.465h4.644V231.226z"/>
		<path style="fill:#FFFFFF;" d="M423.64,232.69l5.836-15.167h1.423l-5.857,15.167H423.64z"/>
		<path style="fill:#FFFFFF;" d="M432.425,217.941c0.921-0.188,2.238-0.293,3.494-0.293c1.945,0,3.2,0.355,4.079,1.151
			c0.711,0.628,1.108,1.59,1.108,2.678c0,1.862-1.171,3.096-2.656,3.599v0.063c1.087,0.376,1.736,1.381,2.07,2.845
			c0.461,1.966,0.795,3.326,1.088,3.87h-1.883c-0.229-0.397-0.544-1.611-0.941-3.368c-0.418-1.945-1.171-2.678-2.824-2.74h-1.715
			v6.108h-1.82V217.941z M434.245,224.364h1.861c1.946,0,3.18-1.067,3.18-2.678c0-1.819-1.317-2.615-3.242-2.636
			c-0.879,0-1.506,0.084-1.799,0.167V224.364z"/>
		<path style="fill:#FFFFFF;" d="M446.062,227.417l-1.464,4.436h-1.883l4.79-14.1h2.196l4.812,14.1h-1.945l-1.506-4.436H446.062z
			 M450.685,225.996l-1.381-4.059c-0.313-0.92-0.522-1.758-0.731-2.573h-0.042c-0.209,0.837-0.439,1.694-0.712,2.552l-1.38,4.08
			H450.685z"/>
		<path style="fill:#FFFFFF;" d="M456.332,229.636c0.815,0.502,2.008,0.92,3.264,0.92c1.861,0,2.949-0.983,2.949-2.406
			c0-1.317-0.753-2.07-2.656-2.803c-2.302-0.816-3.724-2.008-3.724-3.996c0-2.196,1.819-3.828,4.561-3.828
			c1.443,0,2.489,0.335,3.116,0.69l-0.502,1.485c-0.46-0.251-1.401-0.67-2.678-0.67c-1.924,0-2.656,1.15-2.656,2.113
			c0,1.318,0.857,1.967,2.803,2.72c2.385,0.921,3.599,2.071,3.599,4.142c0,2.176-1.611,4.059-4.938,4.059
			c-1.359,0-2.845-0.397-3.598-0.899L456.332,229.636z"/>
		<path style="fill:#FFFFFF;" d="M468.715,217.753v5.898h6.819v-5.898h1.841v14.1h-1.841v-6.611h-6.819v6.611h-1.82v-14.1H468.715z"
			/>
	</g>
	<g>
		<path style="fill:#FFFFFF;" d="M26.332,25.737v5.899h6.819v-5.899h1.841v14.1h-1.841v-6.611h-6.819v6.611h-1.82v-14.1H26.332z"/>
		<path style="fill:#FFFFFF;" d="M45.45,33.227h-5.48v5.083h6.108v1.527h-7.929v-14.1h7.615v1.527H39.97v4.456h5.48V33.227z"/>
		<path style="fill:#FFFFFF;" d="M50.72,35.402l-1.464,4.435h-1.883l4.79-14.1h2.196l4.812,14.1h-1.945l-1.506-4.435H50.72z
			 M55.343,33.98l-1.381-4.059c-0.313-0.92-0.522-1.757-0.731-2.573h-0.042c-0.209,0.837-0.439,1.695-0.712,2.552l-1.38,4.08H55.343
			z"/>
		<path style="fill:#FFFFFF;" d="M61.241,25.926c1.108-0.167,2.427-0.293,3.87-0.293c2.615,0,4.477,0.607,5.711,1.757
			c1.256,1.15,1.987,2.782,1.987,5.063c0,2.301-0.711,4.184-2.029,5.481c-1.317,1.318-3.493,2.029-6.233,2.029
			c-1.297,0-2.385-0.063-3.306-0.167V25.926z M63.062,38.394c0.46,0.083,1.13,0.104,1.841,0.104c3.891,0,6.004-2.176,6.004-5.983
			c0.021-3.326-1.862-5.439-5.711-5.439c-0.941,0-1.653,0.084-2.134,0.188V38.394z"/>
		<path style="fill:#FFFFFF;" d="M77.158,35.402l-1.464,4.435h-1.883l4.79-14.1h2.196l4.812,14.1h-1.945l-1.506-4.435H77.158z
			 M81.781,33.98L80.4,29.921c-0.313-0.92-0.522-1.757-0.731-2.573h-0.042c-0.209,0.837-0.439,1.695-0.712,2.552l-1.38,4.08H81.781z
			"/>
		<path style="fill:#FFFFFF;" d="M97.219,39.377c-0.67,0.335-2.009,0.669-3.724,0.669c-3.975,0-6.967-2.51-6.967-7.133
			c0-4.414,2.992-7.406,7.364-7.406c1.757,0,2.865,0.376,3.347,0.627L96.8,27.62c-0.69-0.334-1.673-0.585-2.845-0.585
			c-3.306,0-5.502,2.113-5.502,5.815c0,3.452,1.987,5.669,5.418,5.669c1.109,0,2.238-0.23,2.971-0.586L97.219,39.377z"/>
		<path style="fill:#FFFFFF;" d="M101.317,25.737v5.899h6.819v-5.899h1.841v14.1h-1.841v-6.611h-6.819v6.611h-1.82v-14.1H101.317z"
			/>
		<path style="fill:#FFFFFF;" d="M120.435,33.227h-5.48v5.083h6.108v1.527h-7.929v-14.1h7.615v1.527h-5.795v4.456h5.48V33.227z"/>
	</g>
	<g>
		<path style="fill:#FFFFFF;" d="M26.979,209.645h1.82v9.435c0,3.745-1.841,4.896-4.268,4.896c-0.67,0-1.485-0.146-1.945-0.335
			l0.271-1.484c0.377,0.146,0.921,0.271,1.527,0.271c1.632,0,2.594-0.732,2.594-3.494V209.645z"/>
		<path style="fill:#FFFFFF;" d="M43.882,216.548c0,4.854-2.949,7.427-6.548,7.427c-3.724,0-6.339-2.887-6.339-7.154
			c0-4.477,2.782-7.406,6.548-7.406C41.393,209.415,43.882,212.365,43.882,216.548z M32.94,216.779c0,3.013,1.632,5.711,4.498,5.711
			c2.887,0,4.519-2.656,4.519-5.857c0-2.803-1.464-5.732-4.497-5.732C34.447,210.9,32.94,213.683,32.94,216.779z"/>
		<path style="fill:#FFFFFF;" d="M48.063,209.645v14.101h-1.82v-14.101H48.063z"/>
		<path style="fill:#FFFFFF;" d="M51.242,223.746v-14.101h1.987l4.519,7.134c1.046,1.652,1.862,3.139,2.531,4.582l0.042-0.021
			c-0.167-1.883-0.209-3.598-0.209-5.795v-5.899h1.716v14.101h-1.842l-4.477-7.155c-0.983-1.569-1.925-3.18-2.636-4.707
			l-0.063,0.021c0.104,1.779,0.146,3.473,0.146,5.816v6.025H51.242z"/>
		<path style="fill:#FFFFFF;" d="M67.683,211.193h-4.288v-1.548h10.438v1.548h-4.31v12.552h-1.841V211.193z"/>
		<path style="fill:#FFFFFF;" d="M79.835,209.813c0.879-0.146,2.029-0.272,3.494-0.272c1.799,0,3.116,0.418,3.953,1.171
			c0.774,0.669,1.234,1.695,1.234,2.95c0,1.276-0.376,2.28-1.088,3.013c-0.962,1.024-2.531,1.548-4.31,1.548
			c-0.544,0-1.046-0.021-1.464-0.125v5.648h-1.82V209.813z M81.655,216.611c0.397,0.105,0.899,0.146,1.506,0.146
			c2.196,0,3.535-1.066,3.535-3.012c0-1.862-1.317-2.762-3.326-2.762c-0.795,0-1.401,0.063-1.715,0.146V216.611z"/>
		<path style="fill:#FFFFFF;" d="M91.485,219.31l-1.464,4.436h-1.883l4.79-14.101h2.196l4.812,14.101h-1.945l-1.506-4.436H91.485z
			 M96.108,217.888l-1.381-4.059c-0.313-0.921-0.522-1.758-0.731-2.574h-0.042c-0.209,0.837-0.439,1.695-0.712,2.552l-1.38,4.08
			H96.108z"/>
		<path style="fill:#FFFFFF;" d="M103.826,209.645v14.101h-1.82v-14.101H103.826z"/>
		<path style="fill:#FFFFFF;" d="M107.005,223.746v-14.101h1.987l4.519,7.134c1.046,1.652,1.862,3.139,2.531,4.582l0.042-0.021
			c-0.167-1.883-0.209-3.598-0.209-5.795v-5.899h1.716v14.101h-1.842l-4.477-7.155c-0.983-1.569-1.925-3.18-2.636-4.707
			l-0.063,0.021c0.104,1.779,0.146,3.473,0.146,5.816v6.025H107.005z"/>
	</g>
	<g>
		<path style="fill:#FFFFFF;" d="M1.59,85.687c0.879-0.146,2.029-0.272,3.494-0.272c1.799,0,3.116,0.418,3.953,1.171
			c0.774,0.669,1.234,1.695,1.234,2.95c0,1.276-0.376,2.28-1.088,3.013c-0.962,1.025-2.531,1.548-4.31,1.548
			c-0.544,0-1.046-0.021-1.464-0.125v5.648H1.59V85.687z M3.41,92.486c0.397,0.104,0.899,0.146,1.506,0.146
			c2.196,0,3.535-1.067,3.535-3.012c0-1.862-1.317-2.762-3.326-2.762c-0.795,0-1.401,0.063-1.715,0.146V92.486z"/>
		<path style="fill:#FFFFFF;" d="M13.24,95.185l-1.464,4.435H9.894l4.79-14.1h2.196l4.812,14.1h-1.945l-1.506-4.435H13.24z
			 M17.863,93.762l-1.381-4.059c-0.313-0.92-0.522-1.757-0.731-2.573h-0.042c-0.209,0.837-0.439,1.695-0.712,2.552l-1.38,4.08
			H17.863z"/>
		<path style="fill:#FFFFFF;" d="M25.582,85.52v14.1h-1.82v-14.1H25.582z"/>
		<path style="fill:#FFFFFF;" d="M28.761,99.62v-14.1h1.987l4.519,7.134c1.046,1.653,1.862,3.138,2.531,4.582l0.042-0.021
			c-0.167-1.883-0.209-3.598-0.209-5.795V85.52h1.716v14.1h-1.842l-4.477-7.155c-0.983-1.569-1.925-3.18-2.636-4.707l-0.063,0.021
			c0.104,1.778,0.146,3.473,0.146,5.816v6.025H28.761z"/>
		<path style="fill:#FFFFFF;" d="M42.523,85.52h7.594v1.527h-5.773v4.686h5.334v1.506h-5.334v6.38h-1.82V85.52z"/>
		<path style="fill:#FFFFFF;" d="M54.53,85.52v8.347c0,3.159,1.401,4.498,3.284,4.498c2.092,0,3.431-1.38,3.431-4.498V85.52h1.841
			v8.222c0,4.331-2.28,6.108-5.334,6.108c-2.887,0-5.063-1.652-5.063-6.025V85.52H54.53z"/>
		<path style="fill:#FFFFFF;" d="M66.242,85.52h1.82v12.573h6.024v1.527h-7.845V85.52z"/>
		<path style="fill:#FFFFFF;" d="M92.599,92.423c0,4.854-2.949,7.426-6.548,7.426c-3.724,0-6.339-2.887-6.339-7.154
			c0-4.477,2.782-7.406,6.548-7.406C90.109,85.29,92.599,88.239,92.599,92.423z M81.657,92.653c0,3.013,1.632,5.711,4.498,5.711
			c2.887,0,4.519-2.657,4.519-5.857c0-2.803-1.464-5.732-4.497-5.732C83.164,86.775,81.657,89.557,81.657,92.653z"/>
		<path style="fill:#FFFFFF;" d="M94.96,85.708c0.921-0.188,2.238-0.293,3.494-0.293c1.945,0,3.2,0.355,4.079,1.151
			c0.711,0.627,1.108,1.59,1.108,2.678c0,1.862-1.171,3.096-2.656,3.598v0.063c1.087,0.376,1.736,1.381,2.07,2.845
			c0.461,1.966,0.795,3.326,1.088,3.87h-1.883c-0.229-0.397-0.544-1.611-0.941-3.368c-0.418-1.945-1.171-2.678-2.824-2.74H96.78
			v6.108h-1.82V85.708z M96.78,92.13h1.861c1.946,0,3.18-1.067,3.18-2.678c0-1.82-1.317-2.615-3.242-2.636
			c-0.879,0-1.506,0.083-1.799,0.167V92.13z"/>
		<path style="fill:#FFFFFF;" d="M24.18,110.808c0.921-0.188,2.238-0.293,3.494-0.293c1.945,0,3.2,0.355,4.079,1.151
			c0.711,0.627,1.108,1.59,1.108,2.678c0,1.862-1.171,3.096-2.656,3.598v0.063c1.088,0.376,1.736,1.381,2.07,2.845
			c0.461,1.966,0.795,3.326,1.088,3.87H31.48c-0.229-0.397-0.544-1.611-0.941-3.368c-0.418-1.945-1.171-2.678-2.824-2.74H26v6.108
			h-1.82V110.808z M26,117.23h1.861c1.946,0,3.18-1.067,3.18-2.678c0-1.82-1.317-2.615-3.242-2.636
			c-0.879,0-1.506,0.083-1.799,0.167V117.23z"/>
		<path style="fill:#FFFFFF;" d="M42.733,118.108h-5.48v5.083h6.108v1.527h-7.929v-14.1h7.615v1.527h-5.795v4.456h5.48V118.108z"/>
		<path style="fill:#FFFFFF;" d="M45.724,110.808c1.108-0.167,2.427-0.293,3.87-0.293c2.615,0,4.477,0.607,5.711,1.757
			c1.256,1.15,1.987,2.782,1.987,5.063c0,2.301-0.711,4.184-2.029,5.481c-1.317,1.318-3.493,2.029-6.233,2.029
			c-1.297,0-2.385-0.063-3.306-0.167V110.808z M47.544,123.276c0.46,0.083,1.13,0.104,1.841,0.104c3.891,0,6.004-2.176,6.004-5.983
			c0.021-3.326-1.862-5.439-5.711-5.439c-0.941,0-1.653,0.084-2.134,0.188V123.276z"/>
		<path style="fill:#FFFFFF;" d="M71.389,118.108h-5.48v5.083h6.108v1.527h-7.929v-14.1h7.615v1.527h-5.795v4.456h5.48V118.108z"/>
		<path style="fill:#FFFFFF;" d="M77.578,124.719v-5.983l-4.456-8.117h2.071l1.987,3.891c0.544,1.067,0.963,1.925,1.402,2.908h0.041
			c0.397-0.921,0.879-1.841,1.423-2.908l2.029-3.891h2.071l-4.729,8.096v6.004H77.578z"/>
		<path style="fill:#FFFFFF;" d="M92.911,118.108h-5.48v5.083h6.108v1.527H85.61v-14.1h7.615v1.527h-5.795v4.456h5.48V118.108z"/>
		<path style="fill:#FFFFFF;" d="M95.649,122.502c0.815,0.502,2.009,0.92,3.264,0.92c1.861,0,2.949-0.983,2.949-2.406
			c0-1.318-0.753-2.071-2.656-2.803c-2.302-0.816-3.724-2.008-3.724-3.996c0-2.196,1.819-3.828,4.561-3.828
			c1.443,0,2.489,0.335,3.116,0.69l-0.502,1.485c-0.46-0.251-1.401-0.669-2.678-0.669c-1.924,0-2.656,1.15-2.656,2.113
			c0,1.318,0.857,1.966,2.803,2.72c2.385,0.92,3.599,2.071,3.599,4.142c0,2.175-1.611,4.058-4.938,4.058
			c-1.359,0-2.845-0.397-3.598-0.899L95.649,122.502z"/>
	</g>
	<g>
		<path style="fill:#FFFFFF;" d="M364.261,308.3c-0.104-1.967-0.23-4.33-0.21-6.088h-0.063c-0.48,1.652-1.066,3.41-1.778,5.355
			l-2.489,6.842h-1.381l-2.28-6.716c-0.669-1.987-1.234-3.808-1.632-5.481h-0.041c-0.042,1.758-0.146,4.121-0.272,6.234
			l-0.377,6.046h-1.736l0.983-14.101h2.322l2.406,6.82c0.585,1.736,1.066,3.285,1.422,4.749h0.063
			c0.355-1.423,0.857-2.971,1.485-4.749l2.51-6.82h2.322l0.879,14.101h-1.778L364.261,308.3z"/>
		<path style="fill:#FFFFFF;" d="M371.015,300.392v8.348c0,3.158,1.401,4.498,3.284,4.498c2.092,0,3.431-1.381,3.431-4.498v-8.348
			h1.841v8.223c0,4.33-2.28,6.107-5.334,6.107c-2.887,0-5.063-1.652-5.063-6.024v-8.306H371.015z"/>
		<path style="fill:#FFFFFF;" d="M382.477,312.275c0.815,0.502,2.008,0.921,3.264,0.921c1.861,0,2.949-0.983,2.949-2.405
			c0-1.318-0.753-2.072-2.656-2.804c-2.302-0.815-3.724-2.009-3.724-3.996c0-2.196,1.819-3.828,4.561-3.828
			c1.443,0,2.489,0.335,3.116,0.69l-0.502,1.485c-0.46-0.251-1.401-0.669-2.678-0.669c-1.924,0-2.656,1.15-2.656,2.112
			c0,1.317,0.857,1.966,2.803,2.72c2.385,0.92,3.599,2.07,3.599,4.143c0,2.175-1.611,4.058-4.938,4.058
			c-1.359,0-2.845-0.397-3.598-0.899L382.477,312.275z"/>
		<path style="fill:#FFFFFF;" d="M402.893,314.033c-0.67,0.334-2.009,0.669-3.724,0.669c-3.975,0-6.967-2.511-6.967-7.134
			c0-4.414,2.992-7.405,7.364-7.405c1.757,0,2.865,0.376,3.347,0.628l-0.439,1.484c-0.69-0.334-1.673-0.585-2.845-0.585
			c-3.306,0-5.502,2.112-5.502,5.815c0,3.451,1.987,5.67,5.418,5.67c1.109,0,2.238-0.23,2.971-0.586L402.893,314.033z"/>
		<path style="fill:#FFFFFF;" d="M405.17,300.392h1.82v12.573h6.024v1.527h-7.845V300.392z"/>
		<path style="fill:#FFFFFF;" d="M422.344,307.882h-5.48v5.083h6.108v1.527h-7.929v-14.101h7.615v1.527h-5.795v4.457h5.48V307.882z"
			/>
		<path style="fill:#FFFFFF;" d="M429.768,300.56c0.879-0.146,2.029-0.271,3.494-0.271c1.799,0,3.116,0.418,3.953,1.171
			c0.774,0.669,1.234,1.694,1.234,2.95c0,1.275-0.376,2.279-1.088,3.012c-0.962,1.025-2.531,1.549-4.31,1.549
			c-0.544,0-1.046-0.021-1.464-0.126v5.648h-1.82V300.56z M431.588,307.359c0.397,0.104,0.899,0.146,1.506,0.146
			c2.196,0,3.535-1.066,3.535-3.012c0-1.862-1.317-2.762-3.326-2.762c-0.795,0-1.401,0.063-1.715,0.146V307.359z"/>
		<path style="fill:#FFFFFF;" d="M441.418,310.058l-1.464,4.435h-1.883l4.79-14.101h2.196l4.812,14.101h-1.945l-1.506-4.435H441.418
			z M446.041,308.635l-1.381-4.059c-0.313-0.921-0.522-1.757-0.731-2.573h-0.042c-0.209,0.837-0.439,1.695-0.712,2.553l-1.38,4.079
			H446.041z"/>
		<path style="fill:#FFFFFF;" d="M453.759,300.392v14.101h-1.82v-14.101H453.759z"/>
		<path style="fill:#FFFFFF;" d="M456.938,314.493v-14.101h1.987l4.519,7.135c1.046,1.652,1.862,3.138,2.531,4.581l0.042-0.021
			c-0.167-1.883-0.209-3.599-0.209-5.795v-5.9h1.716v14.101h-1.842l-4.477-7.155c-0.983-1.568-1.925-3.18-2.636-4.706l-0.063,0.021
			c0.104,1.778,0.146,3.473,0.146,5.816v6.024H456.938z"/>
	</g>
	<circle style="fill:none;stroke:#FFFFFF;stroke-width:3;stroke-miterlimit:10;" cx="136.82" cy="215.401" r="4.8"/>
	<circle style="fill:none;stroke:#FFFFFF;stroke-width:3;stroke-miterlimit:10;" cx="256.198" cy="224.59" r="4.8"/>
	<circle style="fill:none;stroke:#FFFFFF;stroke-width:3;stroke-miterlimit:10;" cx="300.353" cy="306.035" r="4.8"/>
	<circle style="fill:none;stroke:#FFFFFF;stroke-width:3;stroke-miterlimit:10;" cx="182.561" cy="91.967" r="4.8"/>
	<circle style="fill:none;stroke:#FFFFFF;stroke-width:3;stroke-miterlimit:10;" cx="277.032" cy="53.296" r="4.8"/>
	<circle style="fill:none;stroke:#FFFFFF;stroke-width:3;stroke-miterlimit:10;" cx="210.953" cy="32.993" r="4.8"/>
	<line style="fill:none;stroke:#FFFFFF;stroke-width:2;stroke-miterlimit:10;" x1="282.905" y1="53.296" x2="347.844" y2="53.296"/>
	<line style="fill:none;stroke:#FFFFFF;stroke-width:2;stroke-miterlimit:10;" x1="260.573" y1="224.59" x2="347.844" y2="224.59"/>
	<line style="fill:none;stroke:#FFFFFF;stroke-width:2;stroke-miterlimit:10;" x1="109.11" y1="91.966" x2="177.761" y2="91.966"/>
	<line style="fill:none;stroke:#FFFFFF;stroke-width:2;stroke-miterlimit:10;" x1="109.11" y1="215.401" x2="132.02" y2="215.401"/>
	<line style="fill:none;stroke:#FFFFFF;stroke-width:2;stroke-miterlimit:10;" x1="109.11" y1="32.992" x2="206.785" y2="32.992"/>
	
		<line style="fill:none;stroke:#FFFFFF;stroke-width:2;stroke-miterlimit:10;" x1="305.152" y1="306.035" x2="347.844" y2="306.035"/>
</g>
</svg>
